<?xml version="1.0" encoding="iso-8859-1"?>
<!-- Uploaded to: SVG Repo, www.svgrepo.com, Generator: SVG Repo Mixer Tools -->
<svg fill="#000000" height="50px" width="50px" version="1.1" id="Layer_1" xmlns="http://www.w3.org/2000/svg" xmlns:xlink="http://www.w3.org/1999/xlink" 
	 viewBox="0 0 512 512" xml:space="preserve">
<g>
	<g>
		<path d="M459.174,470.211c-0.15-0.729-0.37-1.458-0.659-2.163c-0.289-0.694-0.648-1.365-1.064-1.99
			c-0.428-0.636-0.914-1.226-1.446-1.758c-0.532-0.544-1.122-1.018-1.758-1.446c-0.625-0.416-1.296-0.775-1.99-1.064
			c-0.706-0.289-1.434-0.509-2.163-0.659c-1.492-0.301-3.031-0.301-4.523,0c-0.74,0.15-1.469,0.37-2.163,0.659
			c-0.706,0.289-1.377,0.648-2.001,1.064c-0.636,0.428-1.226,0.902-1.758,1.446c-0.532,0.532-1.018,1.122-1.434,1.758
			c-0.416,0.625-0.775,1.296-1.064,1.99c-0.289,0.706-0.509,1.434-0.659,2.163c-0.15,0.752-0.231,1.515-0.231,2.267
			s0.081,1.515,0.231,2.256c0.15,0.74,0.37,1.469,0.659,2.163c0.289,0.706,0.648,1.377,1.064,2.001
			c0.416,0.636,0.902,1.226,1.434,1.758c0.532,0.532,1.122,1.018,1.758,1.434c0.625,0.416,1.296,0.775,2.001,1.064
			c0.694,0.289,1.423,0.509,2.163,0.659c0.74,0.15,1.504,0.231,2.256,0.231c0.752,0,1.515-0.081,2.267-0.231
			c0.729-0.15,1.458-0.37,2.163-0.659c0.694-0.289,1.365-0.648,1.99-1.064c0.636-0.416,1.226-0.902,1.758-1.434
			s1.018-1.122,1.446-1.758c0.416-0.625,0.775-1.296,1.064-2.001c0.289-0.694,0.509-1.423,0.659-2.163
			c0.15-0.74,0.22-1.504,0.22-2.256S459.324,470.963,459.174,470.211z"/>
	</g>
</g>
<g>
	<g>
		<path d="M341.893,411.764l151.069-151.07c25.383-25.382,25.383-66.684,0-92.066L371.326,46.991
			c-25.382-25.382-66.684-25.382-92.066,0L128.19,198.06c-0.002,0.002-0.003,0.005-0.006,0.006L13.988,312.262
			c-18.651,18.652-18.651,49,0,67.651l80.996,80.996H53.381c-6.389,0-11.567,5.179-11.567,11.567
			c0,6.389,5.179,11.567,11.567,11.567h69.529h141.912h149.115c6.389,0,11.567-5.179,11.567-11.567
			c0-6.389-5.179-11.567-11.567-11.567H292.749l49.138-49.138C341.89,411.768,341.891,411.767,341.893,411.764z M260.031,460.906
			H127.702v0.001l-97.355-97.355c-4.666-4.665-7.235-10.869-7.235-17.467c0-6.598,2.569-12.801,7.235-17.467l106.021-106.022
			l20.968,20.968l-62.942,62.942c-4.517,4.517-4.517,11.842,0,16.36c2.258,2.259,5.219,3.388,8.179,3.388s5.921-1.13,8.179-3.388
			l62.942-62.942l143.658,143.658L260.031,460.906z M190.055,243.567l135.983-135.983c4.517-4.517,4.517-11.842,0-16.36
			c-4.516-4.517-11.842-4.517-16.359,0L173.696,227.208l-20.968-20.968l142.89-142.89c16.363-16.363,42.987-16.363,59.35,0
			l121.636,121.637c16.363,16.362,16.363,42.987,0.001,59.349l-142.891,142.89L190.055,243.567z"/>
	</g>
</g>
<g>
	<g>
		<path d="M89.954,336.388c-0.15-0.729-0.37-1.458-0.659-2.163c-0.289-0.694-0.648-1.365-1.064-1.99
			c-0.428-0.636-0.902-1.226-1.434-1.758c-0.544-0.532-1.134-1.018-1.77-1.446c-0.625-0.416-1.296-0.775-1.99-1.064
			s-1.423-0.509-2.163-0.659c-1.492-0.301-3.031-0.301-4.523,0c-0.74,0.15-1.469,0.37-2.163,0.659s-1.365,0.648-2.001,1.064
			c-0.625,0.428-1.226,0.914-1.758,1.446s-1.018,1.122-1.434,1.758c-0.416,0.625-0.775,1.296-1.064,1.99
			c-0.289,0.706-0.509,1.434-0.659,2.163c-0.15,0.752-0.22,1.515-0.22,2.267c0,0.752,0.069,1.515,0.22,2.256
			c0.15,0.74,0.37,1.469,0.659,2.163c0.289,0.706,0.648,1.376,1.064,2.001c0.416,0.636,0.902,1.226,1.434,1.758
			c0.532,0.532,1.134,1.018,1.758,1.434c0.636,0.416,1.307,0.775,2.001,1.064s1.423,0.509,2.163,0.659
			c0.74,0.15,1.504,0.231,2.256,0.231c0.763,0,1.515-0.081,2.267-0.231c0.74-0.15,1.469-0.37,2.163-0.659s1.365-0.648,1.99-1.064
			c0.636-0.416,1.226-0.902,1.77-1.434c0.532-0.532,1.006-1.122,1.434-1.758c0.416-0.625,0.775-1.296,1.064-2.001
			c0.289-0.694,0.509-1.423,0.659-2.163s0.231-1.504,0.231-2.256C90.185,337.903,90.104,337.14,89.954,336.388z"/>
	</g>
</g>
</svg>