<?xml version="1.0" encoding="UTF-8" standalone="no"?>
<svg height="50" version="1.1" viewBox="0 0 24 24" width="50" xmlns="http://www.w3.org/2000/svg">
	<g stroke-width="1.2" stroke="#000000">
		<path d="M12 23H3.97C2.11 22.7 1.02 21.8.97 20V4C1.15 2.01 2.3 1.19 3.97 1h7.13h7.1L23 5.81V20c-.2 1.5-.8 2.7-3 3z" fill="none" stroke-linecap="square" stroke-linejoin="round"/>
		<path d="m4.99 23v-8c0-1.7 1.21-2.9 3.03-3c0 0 5.28 0 7.98 0c1.9 0 3 1.4 3 3c0 2.7 0 8 0 8z" fill="none"  stroke-linecap="square" stroke-linejoin="round"/>
		<path d="M7.01 1L7 5C7 6.89 8.04 8.06 9.98 8.02H14C15.3 7.87 16.9 7.44 17 4.99V.998Z" fill="none"  stroke-linecap="square" stroke-linejoin="round"/>
		<path d="m7.2 15.4h9.6" fill="none" stroke-linecap="square" stroke-linejoin="round"/>
		<path d="m7.2 17.8h9.6" fill="none" stroke-linecap="square" stroke-linejoin="round"/>
		<path d="m7.2 20.1h9.6" fill="none" stroke-linecap="square" stroke-linejoin="round"/>
	</g>
</svg>
